<svg xmlns="http://www.w3.org/2000/svg" version="1.1" xmlns:xlink="http://www.w3.org/1999/xlink" xmlns:svgjs="http://svgjs.com/svgjs" width="1440" height="560" preserveAspectRatio="none" viewBox="0 0 1440 560"><g mask="url(&quot;#SvgjsMask1000&quot;)" fill="none"><rect width="1440" height="560" x="0" y="0" fill="#0e2a47"></rect><path d="M22.82 177.5L87.77 215L87.77 290L22.82 327.5L-42.13 290L-42.13 215zM282.63 402.5L347.59 440L347.59 515L282.63 552.5L217.68 515L217.68 440zM347.59 515L412.54 552.5L412.54 627.5L347.59 665L282.63 627.5L282.63 552.5zM412.54 -47.5L477.5 -10L477.5 65L412.54 102.5L347.59 65L347.59 -10zM477.5 290L542.45 327.5L542.45 402.5L477.5 440L412.54 402.5L412.54 327.5zM477.5 515L542.45 552.5L542.45 627.5L477.5 665L412.54 627.5L412.54 552.5zM672.36 177.5L737.31 215L737.31 290L672.36 327.5L607.4 290L607.4 215zM867.22 290L932.17 327.5L932.17 402.5L867.22 440L802.26 402.5L802.26 327.5zM997.13 65L1062.08 102.5L1062.08 177.5L997.13 215L932.17 177.5L932.17 102.5zM1127.03 65L1191.99 102.5L1191.99 177.5L1127.03 215L1062.08 177.5L1062.08 102.5zM1451.8 177.5L1516.76 215L1516.76 290L1451.8 327.5L1386.85 290L1386.85 215z" stroke="#03305d" stroke-width="2"></path><path d="M15.32 177.5 a7.5 7.5 0 1 0 15 0 a7.5 7.5 0 1 0 -15 0zM80.27 215 a7.5 7.5 0 1 0 15 0 a7.5 7.5 0 1 0 -15 0zM80.27 290 a7.5 7.5 0 1 0 15 0 a7.5 7.5 0 1 0 -15 0zM15.32 327.5 a7.5 7.5 0 1 0 15 0 a7.5 7.5 0 1 0 -15 0zM-49.63 290 a7.5 7.5 0 1 0 15 0 a7.5 7.5 0 1 0 -15 0zM-49.63 215 a7.5 7.5 0 1 0 15 0 a7.5 7.5 0 1 0 -15 0zM275.13 402.5 a7.5 7.5 0 1 0 15 0 a7.5 7.5 0 1 0 -15 0zM340.09 440 a7.5 7.5 0 1 0 15 0 a7.5 7.5 0 1 0 -15 0zM340.09 515 a7.5 7.5 0 1 0 15 0 a7.5 7.5 0 1 0 -15 0zM275.13 552.5 a7.5 7.5 0 1 0 15 0 a7.5 7.5 0 1 0 -15 0zM210.18 515 a7.5 7.5 0 1 0 15 0 a7.5 7.5 0 1 0 -15 0zM210.18 440 a7.5 7.5 0 1 0 15 0 a7.5 7.5 0 1 0 -15 0zM405.04 552.5 a7.5 7.5 0 1 0 15 0 a7.5 7.5 0 1 0 -15 0zM405.04 627.5 a7.5 7.5 0 1 0 15 0 a7.5 7.5 0 1 0 -15 0zM340.09 665 a7.5 7.5 0 1 0 15 0 a7.5 7.5 0 1 0 -15 0zM275.13 627.5 a7.5 7.5 0 1 0 15 0 a7.5 7.5 0 1 0 -15 0zM405.04 -47.5 a7.5 7.5 0 1 0 15 0 a7.5 7.5 0 1 0 -15 0zM470 -10 a7.5 7.5 0 1 0 15 0 a7.5 7.5 0 1 0 -15 0zM470 65 a7.5 7.5 0 1 0 15 0 a7.5 7.5 0 1 0 -15 0zM405.04 102.5 a7.5 7.5 0 1 0 15 0 a7.5 7.5 0 1 0 -15 0zM340.09 65 a7.5 7.5 0 1 0 15 0 a7.5 7.5 0 1 0 -15 0zM340.09 -10 a7.5 7.5 0 1 0 15 0 a7.5 7.5 0 1 0 -15 0zM470 290 a7.5 7.5 0 1 0 15 0 a7.5 7.5 0 1 0 -15 0zM534.95 327.5 a7.5 7.5 0 1 0 15 0 a7.5 7.5 0 1 0 -15 0zM534.95 402.5 a7.5 7.5 0 1 0 15 0 a7.5 7.5 0 1 0 -15 0zM470 440 a7.5 7.5 0 1 0 15 0 a7.5 7.5 0 1 0 -15 0zM405.04 402.5 a7.5 7.5 0 1 0 15 0 a7.5 7.5 0 1 0 -15 0zM405.04 327.5 a7.5 7.5 0 1 0 15 0 a7.5 7.5 0 1 0 -15 0zM470 515 a7.5 7.5 0 1 0 15 0 a7.5 7.5 0 1 0 -15 0zM534.95 552.5 a7.5 7.5 0 1 0 15 0 a7.5 7.5 0 1 0 -15 0zM534.95 627.5 a7.5 7.5 0 1 0 15 0 a7.5 7.5 0 1 0 -15 0zM470 665 a7.5 7.5 0 1 0 15 0 a7.5 7.5 0 1 0 -15 0zM664.86 177.5 a7.5 7.5 0 1 0 15 0 a7.5 7.5 0 1 0 -15 0zM729.81 215 a7.5 7.5 0 1 0 15 0 a7.5 7.5 0 1 0 -15 0zM729.81 290 a7.5 7.5 0 1 0 15 0 a7.5 7.5 0 1 0 -15 0zM664.86 327.5 a7.5 7.5 0 1 0 15 0 a7.5 7.5 0 1 0 -15 0zM599.9 290 a7.5 7.5 0 1 0 15 0 a7.5 7.5 0 1 0 -15 0zM599.9 215 a7.5 7.5 0 1 0 15 0 a7.5 7.5 0 1 0 -15 0zM859.72 290 a7.5 7.5 0 1 0 15 0 a7.5 7.5 0 1 0 -15 0zM924.67 327.5 a7.5 7.5 0 1 0 15 0 a7.5 7.5 0 1 0 -15 0zM924.67 402.5 a7.5 7.5 0 1 0 15 0 a7.5 7.5 0 1 0 -15 0zM859.72 440 a7.5 7.5 0 1 0 15 0 a7.5 7.5 0 1 0 -15 0zM794.76 402.5 a7.5 7.5 0 1 0 15 0 a7.5 7.5 0 1 0 -15 0zM794.76 327.5 a7.5 7.5 0 1 0 15 0 a7.5 7.5 0 1 0 -15 0zM989.63 65 a7.5 7.5 0 1 0 15 0 a7.5 7.5 0 1 0 -15 0zM1054.58 102.5 a7.5 7.5 0 1 0 15 0 a7.5 7.5 0 1 0 -15 0zM1054.58 177.5 a7.5 7.5 0 1 0 15 0 a7.5 7.5 0 1 0 -15 0zM989.63 215 a7.5 7.5 0 1 0 15 0 a7.5 7.5 0 1 0 -15 0zM924.67 177.5 a7.5 7.5 0 1 0 15 0 a7.5 7.5 0 1 0 -15 0zM924.67 102.5 a7.5 7.5 0 1 0 15 0 a7.5 7.5 0 1 0 -15 0zM1119.53 65 a7.5 7.5 0 1 0 15 0 a7.5 7.5 0 1 0 -15 0zM1184.49 102.5 a7.5 7.5 0 1 0 15 0 a7.5 7.5 0 1 0 -15 0zM1184.49 177.5 a7.5 7.5 0 1 0 15 0 a7.5 7.5 0 1 0 -15 0zM1119.53 215 a7.5 7.5 0 1 0 15 0 a7.5 7.5 0 1 0 -15 0zM1444.3 177.5 a7.5 7.5 0 1 0 15 0 a7.5 7.5 0 1 0 -15 0zM1509.26 215 a7.5 7.5 0 1 0 15 0 a7.5 7.5 0 1 0 -15 0zM1509.26 290 a7.5 7.5 0 1 0 15 0 a7.5 7.5 0 1 0 -15 0zM1444.3 327.5 a7.5 7.5 0 1 0 15 0 a7.5 7.5 0 1 0 -15 0zM1379.35 290 a7.5 7.5 0 1 0 15 0 a7.5 7.5 0 1 0 -15 0zM1379.35 215 a7.5 7.5 0 1 0 15 0 a7.5 7.5 0 1 0 -15 0z" fill="#03305d"></path><path d="M23.66 -3.15L66.96 21.85L66.96 71.85L23.66 96.85L-19.64 71.85L-19.64 21.85zM196.87 -3.15L240.17 21.85L240.17 71.85L196.87 96.85L153.57 71.85L153.57 21.85zM240.17 71.85L283.48 96.85L283.48 146.85L240.17 171.85L196.87 146.85L196.87 96.85zM283.48 -3.15L326.78 21.85L326.78 71.85L283.48 96.85L240.17 71.85L240.17 21.85zM283.48 296.85L326.78 321.85L326.78 371.85L283.48 396.85L240.17 371.85L240.17 321.85zM413.38 71.85L456.69 96.85L456.69 146.85L413.38 171.85L370.08 146.85L370.08 96.85zM413.38 371.85L456.69 396.85L456.69 446.85L413.38 471.85L370.08 446.85L370.08 396.85zM456.69 146.85L499.99 171.85L499.99 221.85L456.69 246.85L413.38 221.85L413.38 171.85zM629.89 -3.15L673.2 21.85L673.2 71.85L629.89 96.85L586.59 71.85L586.59 21.85zM759.8 71.85L803.11 96.85L803.11 146.85L759.8 171.85L716.5 146.85L716.5 96.85zM759.8 221.85L803.11 246.85L803.11 296.85L759.8 321.85L716.5 296.85L716.5 246.85zM933.01 221.85L976.32 246.85L976.32 296.85L933.01 321.85L889.71 296.85L889.71 246.85zM1019.62 221.85L1062.92 246.85L1062.92 296.85L1019.62 321.85L976.32 296.85L976.32 246.85zM1019.62 371.85L1062.92 396.85L1062.92 446.85L1019.62 471.85L976.32 446.85L976.32 396.85z" stroke="rgba(6, 80, 156, 0.93)" stroke-width="2"></path></g><defs><mask id="SvgjsMask1000"><rect width="1440" height="560" fill="#ffffff"></rect></mask></defs></svg>